<mxfile host="app.diagrams.net" agent="Mozilla/5.0 (Windows NT 10.0; Win64; x64) AppleWebKit/537.36 (KHTML, like Gecko) Chrome/129.0.0.0 Safari/537.36 Edg/129.0.0.0" version="24.8.0">
  <diagram name="Page-1" id="b5b7bab2-c9e2-2cf4-8b2a-24fd1a2a6d21">
    <mxGraphModel dx="789" dy="824" grid="1" gridSize="10" guides="1" tooltips="1" connect="1" arrows="1" fold="1" page="1" pageScale="1" pageWidth="827" pageHeight="1169" background="none" math="0" shadow="0">
      <root>
        <mxCell id="0" />
        <mxCell id="1" parent="0" />
        <mxCell id="MF6BGkH-9MjLbZ4tBDWj-2" value="" style="rounded=0;whiteSpace=wrap;html=1;dashed=1;" vertex="1" parent="1">
          <mxGeometry x="1380" y="330" width="460" height="340" as="geometry" />
        </mxCell>
        <mxCell id="MF6BGkH-9MjLbZ4tBDWj-4" value="" style="shape=actor;whiteSpace=wrap;html=1;" vertex="1" parent="1">
          <mxGeometry x="1220" y="30" width="40" height="60" as="geometry" />
        </mxCell>
        <mxCell id="MF6BGkH-9MjLbZ4tBDWj-14" style="edgeStyle=orthogonalEdgeStyle;rounded=0;orthogonalLoop=1;jettySize=auto;html=1;" edge="1" parent="1" source="MF6BGkH-9MjLbZ4tBDWj-5" target="MF6BGkH-9MjLbZ4tBDWj-10">
          <mxGeometry relative="1" as="geometry" />
        </mxCell>
        <mxCell id="MF6BGkH-9MjLbZ4tBDWj-15" value="Enters credentials" style="edgeLabel;html=1;align=center;verticalAlign=middle;resizable=0;points=[];" vertex="1" connectable="0" parent="MF6BGkH-9MjLbZ4tBDWj-14">
          <mxGeometry x="-0.3645" relative="1" as="geometry">
            <mxPoint x="1" y="1" as="offset" />
          </mxGeometry>
        </mxCell>
        <mxCell id="MF6BGkH-9MjLbZ4tBDWj-5" value="User" style="text;html=1;align=center;verticalAlign=middle;resizable=0;points=[];autosize=1;strokeColor=none;fillColor=none;" vertex="1" parent="1">
          <mxGeometry x="1216" y="90" width="50" height="30" as="geometry" />
        </mxCell>
        <mxCell id="MF6BGkH-9MjLbZ4tBDWj-9" value="Authentication Module" style="text;html=1;align=center;verticalAlign=middle;resizable=0;points=[];autosize=1;strokeColor=none;fillColor=none;" vertex="1" parent="1">
          <mxGeometry x="1375" y="330" width="140" height="30" as="geometry" />
        </mxCell>
        <mxCell id="MF6BGkH-9MjLbZ4tBDWj-22" value="" style="edgeStyle=orthogonalEdgeStyle;rounded=0;orthogonalLoop=1;jettySize=auto;html=1;" edge="1" parent="1" source="MF6BGkH-9MjLbZ4tBDWj-10" target="MF6BGkH-9MjLbZ4tBDWj-21">
          <mxGeometry relative="1" as="geometry" />
        </mxCell>
        <mxCell id="MF6BGkH-9MjLbZ4tBDWj-10" value="User Interface" style="whiteSpace=wrap;html=1;aspect=fixed;" vertex="1" parent="1">
          <mxGeometry x="1195" y="180" width="90" height="90" as="geometry" />
        </mxCell>
        <mxCell id="MF6BGkH-9MjLbZ4tBDWj-21" value="Authentication API" style="whiteSpace=wrap;html=1;aspect=fixed;" vertex="1" parent="1">
          <mxGeometry x="1400" y="180" width="90" height="90" as="geometry" />
        </mxCell>
        <mxCell id="MF6BGkH-9MjLbZ4tBDWj-23" style="edgeStyle=orthogonalEdgeStyle;rounded=0;orthogonalLoop=1;jettySize=auto;html=1;entryX=0.477;entryY=0.007;entryDx=0;entryDy=0;entryPerimeter=0;" edge="1" parent="1" source="MF6BGkH-9MjLbZ4tBDWj-21" target="MF6BGkH-9MjLbZ4tBDWj-2">
          <mxGeometry relative="1" as="geometry">
            <Array as="points">
              <mxPoint x="1588" y="225" />
            </Array>
          </mxGeometry>
        </mxCell>
        <mxCell id="MF6BGkH-9MjLbZ4tBDWj-32" value="" style="edgeStyle=orthogonalEdgeStyle;rounded=0;orthogonalLoop=1;jettySize=auto;html=1;" edge="1" parent="1" source="MF6BGkH-9MjLbZ4tBDWj-24" target="MF6BGkH-9MjLbZ4tBDWj-31">
          <mxGeometry relative="1" as="geometry" />
        </mxCell>
        <mxCell id="MF6BGkH-9MjLbZ4tBDWj-24" value="Authorization Service" style="rounded=0;whiteSpace=wrap;html=1;" vertex="1" parent="1">
          <mxGeometry x="1640" y="380" width="145" height="60" as="geometry" />
        </mxCell>
        <mxCell id="MF6BGkH-9MjLbZ4tBDWj-29" style="edgeStyle=orthogonalEdgeStyle;rounded=0;orthogonalLoop=1;jettySize=auto;html=1;" edge="1" parent="1" source="MF6BGkH-9MjLbZ4tBDWj-26" target="MF6BGkH-9MjLbZ4tBDWj-24">
          <mxGeometry relative="1" as="geometry" />
        </mxCell>
        <mxCell id="MF6BGkH-9MjLbZ4tBDWj-44" style="edgeStyle=orthogonalEdgeStyle;rounded=0;orthogonalLoop=1;jettySize=auto;html=1;" edge="1" parent="1" source="MF6BGkH-9MjLbZ4tBDWj-26" target="MF6BGkH-9MjLbZ4tBDWj-36">
          <mxGeometry relative="1" as="geometry">
            <Array as="points">
              <mxPoint x="1510" y="820" />
            </Array>
          </mxGeometry>
        </mxCell>
        <mxCell id="MF6BGkH-9MjLbZ4tBDWj-46" value="Authenticates" style="edgeLabel;html=1;align=center;verticalAlign=middle;resizable=0;points=[];" vertex="1" connectable="0" parent="MF6BGkH-9MjLbZ4tBDWj-44">
          <mxGeometry x="-0.3859" y="-1" relative="1" as="geometry">
            <mxPoint as="offset" />
          </mxGeometry>
        </mxCell>
        <mxCell id="MF6BGkH-9MjLbZ4tBDWj-26" value="Authentication Service" style="rounded=0;whiteSpace=wrap;html=1;" vertex="1" parent="1">
          <mxGeometry x="1450" y="380" width="145" height="60" as="geometry" />
        </mxCell>
        <mxCell id="MF6BGkH-9MjLbZ4tBDWj-31" value="Token Service" style="rounded=0;whiteSpace=wrap;html=1;" vertex="1" parent="1">
          <mxGeometry x="1537.5" y="510" width="145" height="60" as="geometry" />
        </mxCell>
        <mxCell id="MF6BGkH-9MjLbZ4tBDWj-36" value="Simple Database" style="shape=cylinder3;whiteSpace=wrap;html=1;boundedLbl=1;backgroundOutline=1;size=15;" vertex="1" parent="1">
          <mxGeometry x="1270" y="770" width="70" height="100" as="geometry" />
        </mxCell>
        <mxCell id="MF6BGkH-9MjLbZ4tBDWj-45" style="edgeStyle=orthogonalEdgeStyle;rounded=0;orthogonalLoop=1;jettySize=auto;html=1;entryX=1;entryY=1;entryDx=0;entryDy=-15;entryPerimeter=0;" edge="1" parent="1" source="MF6BGkH-9MjLbZ4tBDWj-24" target="MF6BGkH-9MjLbZ4tBDWj-36">
          <mxGeometry relative="1" as="geometry">
            <Array as="points">
              <mxPoint x="1760" y="840" />
              <mxPoint x="1340" y="840" />
            </Array>
          </mxGeometry>
        </mxCell>
        <mxCell id="MF6BGkH-9MjLbZ4tBDWj-47" value="Authorize access" style="edgeLabel;html=1;align=center;verticalAlign=middle;resizable=0;points=[];" vertex="1" connectable="0" parent="MF6BGkH-9MjLbZ4tBDWj-45">
          <mxGeometry x="-0.6251" y="-1" relative="1" as="geometry">
            <mxPoint y="13" as="offset" />
          </mxGeometry>
        </mxCell>
      </root>
    </mxGraphModel>
  </diagram>
</mxfile>
